<?xml version="1.0" encoding="iso-8859-1"?>
<!-- Uploaded to: SVG Repo, www.svgrepo.com, Generator: SVG Repo Mixer Tools -->
<!DOCTYPE svg PUBLIC "-//W3C//DTD SVG 1.1//EN" "http://www.w3.org/Graphics/SVG/1.1/DTD/svg11.dtd">
<svg fill="#000000" version="1.1" id="Capa_1" xmlns="http://www.w3.org/2000/svg" xmlns:xlink="http://www.w3.org/1999/xlink" 
	 width="800px" height="800px" viewBox="0 0 581.209 581.21"
	 xml:space="preserve">
<g>
	<g>
		<path d="M290.605,0C210.65,0,145.601,65.049,145.601,145.004v38.7c0,8.604,6.12,15.092,14.235,15.092
			c2.179,0,4.382-0.465,6.555-1.38c15.744-6.641,32.503-12.062,49.816-16.114c8.932-2.09,15.667-10.523,15.667-19.614v-16.684
			c0-32.384,26.347-58.73,58.73-58.73s58.73,26.347,58.73,58.73v16.684c0,9.091,6.738,17.524,15.67,19.614
			c17.296,4.048,34.056,9.468,49.808,16.114c2.173,0.915,4.379,1.38,6.558,1.38c8.115,0,14.235-6.487,14.235-15.092v-38.7
			C435.609,65.049,370.56,0,290.605,0z"/>
		<path d="M137.005,230.562c-6.423,3.565-12.528,11.267-14.517,18.32c-7.194,25.496-10.842,52.066-10.842,78.97
			c0,57.589,16.365,112.226,47.329,157.997c29.997,44.349,72.727,77.629,120.313,93.712c4.03,1.362,8.378,1.649,11.316,1.649
			s7.286-0.284,11.315-1.649c47.59-16.083,90.316-49.363,120.313-93.712c30.964-45.771,47.329-100.408,47.329-157.997
			c0-26.833-3.653-53.4-10.86-78.967c-1.988-7.05-8.094-14.758-14.517-18.323c-46.866-26.01-99.976-39.755-153.59-39.755
			C236.981,190.806,183.872,204.552,137.005,230.562z M313.337,370.336l9.78,58.673c0.799,4.786-2.488,8.666-7.341,8.666h-50.343
			c-4.85,0-8.137-3.88-7.341-8.666l9.78-58.673c0.799-4.785-1.708-11.11-4.617-14.993c-4.101-5.478-6.607-12.148-6.607-19.535
			c0-18.768,15.187-33.957,33.957-33.957c18.767,0,33.957,15.187,33.957,33.957c0,7.387-2.506,14.058-6.606,19.535
			C315.048,359.229,312.542,365.554,313.337,370.336z"/>
	</g>
</g>
</svg>